inDegrees=yes
name=ik_S40_A08_T01
DataType=double
version=3
OpenSimVersion=4.3-2021-08-27-4bc7ad9
endheader
time	pelvis_tilt	pelvis_list	pelvis_rotation	pelvis_tx	pelvis_ty	pelvis_tz	hip_flexion_r	hip_adduction_r	hip_rotation_r	knee_angle_r	knee_angle_r_beta	ankle_angle_r	subtalar_angle_r	mtp_angle_r	hip_flexion_l	hip_adduction_l	hip_rotation_l	knee_angle_l	knee_angle_l_beta	ankle_angle_l	subtalar_angle_l	mtp_angle_l	lumbar_extension	lumbar_bending	lumbar_rotation	arm_flex_r	arm_add_r	arm_rot_r	elbow_flex_r	pro_sup_r	wrist_flex_r	wrist_dev_r	arm_flex_l	arm_add_l	arm_rot_l	elbow_flex_l	pro_sup_l	wrist_flex_l	wrist_dev_l
9.33999999999989	-4.538358245894559	-0.796983471364851	31.40935280132027	0	0.9399999999999999	0	35.74337216759033	-10.50426749759706	-9.878921575730178	41.86069077767829	0.7306068812297118	0	0	0	35.74337216759033	-10.50426749759706	-9.878921575730178	41.86069077767829	0.7306068812297118	0	0	0	-3.659129444351165	-1.236995486902931	5.144126297169763	14.54069737925257	-4.573367747102703	4.827728249957288	46.16210653383929	122.4295286447667	0	0	67.20319823597622	13.53199732011762	-2.401635495593279	86.20924636401433	98.91387103703063	0	0
9.359999999999889	-4.536534771976449	-0.8049787682794571	31.42314194500725	0	0.9399999999999999	0	35.74605715603157	-10.50376814356378	-9.878998678953241	41.863329494166	0.7306529355204489	0	0	0	35.74605715603157	-10.50376814356378	-9.878998678953241	41.863329494166	0.7306529355204489	0	0	0	-3.662199024177466	-1.241836245084344	5.110080876054554	14.58860245130255	-4.532353595777744	4.833363743302511	46.10696545493595	122.4340771357387	0	0	67.07993770012379	13.44864619904017	-2.598948093812522	85.79463418441536	98.764172883227	0	0
9.379999999999889	-4.537395579509705	-0.8283464680377539	31.45814076986439	0	0.9399999999999999	0	35.74681185011694	-10.50363110816778	-9.879020017143759	41.86408709471321	0.7306661581444126	0	0	0	35.74681185011694	-10.50363110816778	-9.879020017143759	41.86408709471321	0.7306661581444126	0	0	0	-3.675304867996153	-1.260037315639827	5.093751365970379	14.64482905676596	-4.491998236754491	4.752237513150503	46.10901216561339	122.430943613217	0	0	66.93543724928205	13.36418520289518	-2.78993004908932	85.71881742675285	98.75365594296866	0	0
9.399999999999888	-4.532908237767861	-0.8183306389853308	31.48444333457268	0	0.9399999999999999	0	35.74978404501181	-10.50307616002589	-9.879105603157601	41.86699492779701	0.7307169094058235	0	0	0	35.74978404501181	-10.50307616002589	-9.879105603157601	41.86699492779701	0.7307169094058235	0	0	0	-3.666972758986767	-1.249207705667502	5.035919042259557	14.61973176914999	-4.490461459888646	4.790503214100974	46.09212510645062	122.4567512132245	0	0	66.67661394017458	13.18554258172492	-3.07703283102693	85.29354673885692	98.72970150100846	0	0
9.419999999999888	-4.528806534698736	-0.8521217687966737	31.4711310605364	0	0.9399999999999999	0	35.75267087329267	-10.50254694739235	-9.879187750302908	41.86986549215906	0.7307670102053317	0	0	0	35.75267087329267	-10.50254694739235	-9.879187750302908	41.86986549215906	0.7307670102053317	0	0	0	-3.680987947427528	-1.280919989113457	5.054979199422924	14.61943342327165	-4.444040798585552	4.695809036975322	46.12152756382122	122.5228917908501	0	0	66.70215387080937	13.15563631799385	-3.052749053165901	84.5063198549601	98.71185875784225	0	0
9.439999999999888	-4.54062955917639	-0.8669452259380461	31.52178143961926	0	0.9399999999999999	0	35.75613785819723	-10.50189996165607	-9.879287574847153	41.87325480692405	0.7308261649073672	0	0	0	35.75613785819723	-10.50189996165607	-9.879287574847153	41.87325480692405	0.7308261649073672	0	0	0	-3.699337101016877	-1.283683041847085	5.00915554698502	14.65576862820522	-4.435179686785791	4.68331135633254	46.11638003101208	122.5194351251129	0	0	66.40016598220384	12.9411926469428	-3.317603992902308	83.90794503246393	98.3876062986474	0	0
9.459999999999887	-4.555018695327136	-0.8868114214000603	31.63304836078125	0	0.9399999999999999	0	35.76015136828678	-10.50115181522268	-9.879403070698334	41.87717930239658	0.7308946602748424	0	0	0	35.76015136828678	-10.50115181522268	-9.879403070698334	41.87717930239658	0.7308946602748424	0	0	0	-3.723257038569724	-1.285061553030022	4.893965682888009	14.69737689621837	-4.425904711671167	4.682443722692472	46.13045521187518	122.5063351547355	0	0	65.63383491869136	12.39592547726661	-3.799254948793726	82.16526382512495	97.18419546537743	0	0
9.479999999999887	-4.558925307713385	-0.8919190903463209	31.68867769451682	0	0.9399999999999999	0	35.76207536057797	-10.50079529399578	-9.879458229382291	41.87906979464919	0.7309276555891339	0	0	0	35.76207536057797	-10.50079529399578	-9.879458229382291	41.87906979464919	0.7309276555891339	0	0	0	-3.729723096466758	-1.284679085985067	4.862042805618257	14.69913882551947	-4.459155011221908	4.722891971327641	46.12747496686865	122.4784690593345	0	0	65.19191412355308	12.21463526070161	-3.923341481932475	81.86759221886929	96.87245745398165	0	0
9.499999999999886	-4.556769511590256	-0.9036852768126982	31.73574080331455	0	0.9399999999999999	0	35.76627638582738	-10.50001484732664	-9.879578883427083	41.8831855531706	0.7309994891265494	0	0	0	35.76627638582738	-10.50001484732664	-9.879578883427083	41.8831855531706	0.7309994891265494	0	0	0	-3.734885408461386	-1.292475060506075	4.830460686056337	14.72567102655355	-4.448898344521566	4.75470163353195	46.15193686940005	122.420196904114	0	0	64.70194326017987	12.00121586579121	-3.922055557503856	80.56767075841456	96.00004327549406	0	0
9.519999999999886	-4.561308782619436	-0.9064133886634379	31.77698562257781	0	0.9399999999999999	0	35.77055576590914	-10.49922027273014	-9.87970176641957	41.88737653047124	0.7310726354793221	0	0	0	35.77055576590914	-10.49922027273014	-9.87970176641957	41.88737653047124	0.7310726354793221	0	0	0	-3.741002290039479	-1.289394622817293	4.807398639546188	14.75904955199767	-4.449897109350658	4.765738638392407	46.13977978566218	122.3732370695291	0	0	64.13577361848452	11.83309705492259	-3.963975810589547	79.17146327976603	95.22606159667718	0	0
9.539999999999885	-4.560177111044505	-0.9116270000119222	31.81961695744558	0	0.9399999999999999	0	35.77463426041471	-10.49846477198986	-9.87981872216657	41.89137599188221	0.7311424392492499	0	0	0	35.77463426041471	-10.49846477198986	-9.87981872216657	41.89137599188221	0.7311424392492499	0	0	0	-3.74302832377439	-1.292825312107685	4.794509917437969	14.79429365835867	-4.449047711282808	4.784491522625978	46.12110384074786	122.3413184902721	0	0	63.5741824936781	11.72232344862835	-4.029218027787968	77.50028768269046	94.29592343421139	0	0
9.559999999999885	-4.563443349975066	-0.9136621452461322	31.84707435651771	0	0.9399999999999999	0	35.77897191375727	-10.49766266426934	-9.879942990232827	41.8956327169184	0.7312167331164835	0	0	0	35.77897191375727	-10.49766266426934	-9.879942990232827	41.8956327169184	0.7312167331164835	0	0	0	-3.74630030535324	-1.293932206933955	4.815270797456558	14.82387389737476	-4.435261353507301	4.754280205323981	46.12474224008995	122.3362451544862	0	0	63.1151982016363	11.75481080412569	-4.179220488124111	75.50122271221589	93.17540768920439	0	0
9.579999999999885	-4.5610414063029	-0.9086321774871978	31.89102242825781	0	0.9399999999999999	0	35.78171825035304	-10.49715647293433	-9.880021512502843	41.89833409318204	0.7312638810266192	0	0	0	35.78171825035304	-10.49715647293433	-9.880021512502843	41.89833409318204	0.7312638810266192	0	0	0	-3.741471888816952	-1.291477519348517	4.828356621387079	14.83026557921262	-4.394590771345243	4.689539605117804	46.12720002939856	122.354001170461	0	0	62.64997583651628	11.83393462011031	-4.363219244599851	74.65139144517653	92.66777541003721	0	0
9.599999999999884	-4.569215642141375	-0.919953410115481	31.91926885735952	0	0.9399999999999999	0	35.78534541542192	-10.49648828779608	-9.880125199119213	41.90190092744842	0.7313261340284406	0	0	0	35.78534541542192	-10.49648828779608	-9.880125199119213	41.90190092744842	0.7313261340284406	0	0	0	-3.753808787860088	-1.297838124356864	4.847172341749308	14.86519875616443	-4.367842072439229	4.641916530862829	46.12208710716155	122.3678192103525	0	0	62.15135779002918	11.81769985712379	-4.53143945316877	72.4783410231225	91.31071427130003	0	0
